<svg width="1200" height="630" viewBox="0 0 1200 630" fill="none" xmlns="http://www.w3.org/2000/svg">
  <defs>
    <linearGradient id="bg" x1="46" y1="32" x2="1076" y2="630" gradientUnits="userSpaceOnUse">
      <stop stop-color="#081119"/>
      <stop offset="0.54" stop-color="#0D1924"/>
      <stop offset="1" stop-color="#132531"/>
    </linearGradient>
    <radialGradient id="signal" cx="0" cy="0" r="1" gradientUnits="userSpaceOnUse" gradientTransform="translate(1062 130) rotate(135) scale(311 244)">
      <stop stop-color="#61D0C2" stop-opacity="0.34"/>
      <stop offset="1" stop-color="#61D0C2" stop-opacity="0"/>
    </radialGradient>
    <radialGradient id="accent" cx="0" cy="0" r="1" gradientUnits="userSpaceOnUse" gradientTransform="translate(238 64) rotate(48) scale(378 270)">
      <stop stop-color="#D8A74B" stop-opacity="0.26"/>
      <stop offset="1" stop-color="#D8A74B" stop-opacity="0"/>
    </radialGradient>
    <pattern id="grid" width="48" height="48" patternUnits="userSpaceOnUse">
      <path d="M48 0H0V48" stroke="white" stroke-opacity="0.08"/>
    </pattern>
  </defs>

  <rect width="1200" height="630" rx="32" fill="url(#bg)"/>
  <rect width="1200" height="630" rx="32" fill="url(#signal)"/>
  <rect width="1200" height="630" rx="32" fill="url(#accent)"/>
  <rect width="1200" height="630" rx="32" fill="url(#grid)"/>

  <rect x="48" y="42" width="1104" height="546" rx="28" fill="#0B1823" fill-opacity="0.48" stroke="rgba(167,190,201,0.18)"/>

  <g>
    <rect x="82" y="82" width="90" height="90" rx="22" fill="#0C1720"/>
    <path d="M127 95L160 111V133.917C160 152.25 147.396 167.833 127 172.417C106.604 167.833 94 152.25 94 133.917V111L127 95Z" fill="#132834" stroke="#D8A74B" stroke-width="3"/>
    <path d="M127 109L144.875 148H135.938L131.583 137.458H122.417L118.062 148H109.125L127 109ZM127 125.5L124.938 130.542H129.063L127 125.5Z" fill="#EDF4F7"/>
    <path d="M106 159H148" stroke="#61D0C2" stroke-width="4" stroke-linecap="round"/>
  </g>

  <text x="196" y="113" fill="#D8A74B" font-family="Barlow Condensed, Arial, sans-serif" font-size="31" font-weight="700" letter-spacing="4.8">
    APEX DEFENSE SOLUTIONS
  </text>
  <text x="196" y="147" fill="#9DB6C0" font-family="Manrope, Arial, sans-serif" font-size="21" font-weight="600" letter-spacing="1.2">
    SERVICE-DISABLED VETERAN-OWNED BUSINESS | TAMPA, FL
  </text>

  <text x="82" y="262" fill="#EEF5F8" font-family="Barlow Condensed, Arial, sans-serif" font-size="86" font-weight="700">
    Veteran-Led IT Design,
  </text>
  <text x="82" y="340" fill="#EEF5F8" font-family="Barlow Condensed, Arial, sans-serif" font-size="86" font-weight="700">
    Network Security &amp;
  </text>
  <text x="82" y="418" fill="#EEF5F8" font-family="Barlow Condensed, Arial, sans-serif" font-size="86" font-weight="700">
    Courier Operations
  </text>

  <text x="84" y="486" fill="#AABEC9" font-family="Manrope, Arial, sans-serif" font-size="29" font-weight="500">
    Infrastructure support, firewall management, and disciplined delivery support.
  </text>

  <g>
    <rect x="83" y="524" width="268" height="44" rx="22" fill="#D8A74B"/>
    <text x="120" y="553" fill="#111111" font-family="Manrope, Arial, sans-serif" font-size="22" font-weight="800">
      apexdsolutions.com
    </text>
  </g>

  <g>
    <rect x="820" y="192" width="286" height="124" rx="24" fill="#112331" fill-opacity="0.84" stroke="#61D0C2" stroke-opacity="0.28"/>
    <text x="848" y="232" fill="#61D0C2" font-family="Barlow Condensed, Arial, sans-serif" font-size="24" font-weight="700" letter-spacing="2.4">
      TECHNICAL SERVICES
    </text>
    <text x="848" y="271" fill="#EEF5F8" font-family="Manrope, Arial, sans-serif" font-size="24" font-weight="700">
      IT Design
    </text>
    <text x="848" y="303" fill="#EEF5F8" font-family="Manrope, Arial, sans-serif" font-size="24" font-weight="700">
      Network Security
    </text>
  </g>

  <g>
    <rect x="820" y="336" width="286" height="124" rx="24" fill="#112331" fill-opacity="0.84" stroke="#D8A74B" stroke-opacity="0.32"/>
    <text x="848" y="376" fill="#D8A74B" font-family="Barlow Condensed, Arial, sans-serif" font-size="24" font-weight="700" letter-spacing="2.4">
      OPERATIONS
    </text>
    <text x="848" y="415" fill="#EEF5F8" font-family="Manrope, Arial, sans-serif" font-size="24" font-weight="700">
      Infrastructure Support
    </text>
    <text x="848" y="447" fill="#EEF5F8" font-family="Manrope, Arial, sans-serif" font-size="24" font-weight="700">
      Courier Division
    </text>
  </g>
</svg>
